<svg width="71" height="50" viewBox="0 0 71 50" fill="none" xmlns="http://www.w3.org/2000/svg">
<path fill-rule="evenodd" clip-rule="evenodd" d="M68.4884 1.54031C69.4735 2.52575 70.027 3.86211 70.027 5.25551C70.027 6.64892 69.4735 7.98528 68.4884 8.97071L29.1013 48.3578C28.5808 48.8784 27.9628 49.2914 27.2827 49.5732C26.6026 49.855 25.8736 50 25.1374 50C24.4012 50 23.6722 49.855 22.9921 49.5732C22.3119 49.2914 21.6939 48.8784 21.1734 48.3578L1.60425 28.7921C1.10236 28.3074 0.702031 27.7275 0.426627 27.0864C0.151224 26.4453 0.00626158 25.7558 0.000198407 25.058C-0.00586476 24.3603 0.127093 23.6683 0.391313 23.0225C0.655534 22.3767 1.04573 21.79 1.53912 21.2966C2.03252 20.8032 2.61923 20.413 3.26504 20.1488C3.91084 19.8846 4.60281 19.7516 5.30055 19.7577C5.99829 19.7637 6.68783 19.9087 7.32895 20.1841C7.97006 20.4595 8.54991 20.8598 9.03466 21.3617L25.1356 37.4627L61.0545 1.54031C61.5425 1.05199 62.122 0.664619 62.7597 0.400326C63.3975 0.136033 64.0811 0 64.7715 0C65.4618 0 66.1454 0.136033 66.7832 0.400326C67.421 0.664619 68.0004 1.05199 68.4884 1.54031Z" fill="black"/>
</svg>
