<svg width="50" height="50" viewBox="0 0 50 50" fill="none" xmlns="http://www.w3.org/2000/svg">
<path fill-rule="evenodd" clip-rule="evenodd" d="M49.053 5.51941C49.3532 5.21955 49.5915 4.86349 49.7541 4.47156C49.9167 4.07964 50.0006 3.65951 50.0008 3.23518C50.0011 2.81085 49.9178 2.39063 49.7556 1.9985C49.5935 1.60637 49.3557 1.25002 49.0558 0.94979C48.756 0.649559 48.3999 0.411332 48.008 0.248708C47.616 0.086083 47.1959 0.00224692 46.7716 0.00198611C46.3473 0.00172531 45.927 0.0850448 45.5349 0.247187C45.1428 0.40933 44.7864 0.64712 44.4862 0.946981L25 20.4332L5.51941 0.946981C4.91307 0.340639 4.09069 -6.38885e-09 3.2332 0C2.3757 6.38885e-09 1.55332 0.340639 0.946981 0.946981C0.340639 1.55332 6.38885e-09 2.3757 0 3.2332C-6.38885e-09 4.09069 0.340639 4.91307 0.946981 5.51941L20.4332 25L0.946981 44.4806C0.646751 44.7808 0.408595 45.1372 0.246112 45.5295C0.0836286 45.9218 0 46.3422 0 46.7668C0 47.1914 0.0836286 47.6118 0.246112 48.0041C0.408595 48.3964 0.646751 48.7528 0.946981 49.053C1.55332 49.6593 2.3757 50 3.2332 50C3.65779 50 4.07822 49.9164 4.47049 49.7539C4.86276 49.5914 5.21918 49.3532 5.51941 49.053L25 29.5668L44.4862 49.053C45.0925 49.6586 45.9146 49.9985 46.7716 49.998C47.6286 49.9975 48.4502 49.6565 49.0558 49.0502C49.6614 48.4439 50.0013 47.6218 50.0008 46.7648C50.0003 45.9078 49.6593 45.0862 49.053 44.4806L29.5668 25L49.053 5.51941Z" fill="black"/>
</svg>
