<svg width="50" height="50" viewBox="0 0 50 50" fill="none" xmlns="http://www.w3.org/2000/svg">
<g clip-path="url(#clip0_19_10)">
<path d="M48.4105 0H1.58952C0.711653 0 0 0.711653 0 1.58952V48.4105C0 49.2883 0.711653 50 1.58952 50H48.4105C49.2883 50 50 49.2883 50 48.4105V1.58952C50 0.711653 49.2883 0 48.4105 0Z" fill="black"/>
<path d="M36.381 40.2626C34.8264 37.5763 33.2941 35.0076 31.8445 32.3913C31.2945 31.4026 30.7064 30.9925 29.4697 31.0465C26.1763 31.1896 22.87 31.0942 19.3604 31.0942C18.9853 27.1713 18.6038 23.1339 18.2127 19.0997C18.1047 17.968 18.0315 16.8235 17.8122 15.7108C17.7391 15.3389 17.3131 14.9828 16.9666 14.7317C14.4933 12.9419 13.9878 9.94087 15.8126 7.68057C17.5261 5.56015 20.8577 5.3249 22.8605 7.18146C24.9523 9.12068 24.9937 12.4841 22.6539 14.2962C21.1089 15.4947 22.1834 16.7885 21.8019 18.2604C23.9827 18.2604 26.0109 18.289 28.036 18.2509C29.3013 18.2286 30.1818 18.6006 30.1946 20.0248C30.2073 21.4299 29.3267 21.8877 28.0805 21.8909C26.1635 21.8973 24.2466 21.8909 22.3074 21.8909C22.4886 23.7729 22.6539 25.4832 22.8287 27.3016C25.585 27.3016 28.1822 27.4638 30.7445 27.2476C32.7346 27.0791 33.771 27.7944 34.5848 29.5333C35.494 31.4725 36.7116 33.2719 37.8497 35.227C38.3202 34.9822 38.7335 34.7851 39.1309 34.5594C40.2276 33.9458 41.3053 33.9554 41.9221 35.1157C42.5547 36.3047 42.1096 37.322 40.8793 37.9482C39.4392 38.6826 38.0023 39.4233 36.3746 40.2562L36.381 40.2626Z" fill="white"/>
<path d="M31.0211 33.1956C32.369 35.3255 32.3383 37.323 30.9289 39.1881C28.036 43.0125 22.5935 44.9294 17.9107 43.7119C12.5382 42.3194 9.3146 38.8861 8.05252 33.4563C6.70143 27.6418 10.6021 20.4317 17.0333 18.7055C17.1287 19.532 17.2209 20.3459 17.329 21.2742C12.1821 23.7856 9.5721 27.8039 10.9359 33.612C12.0263 38.2566 15.7776 41.1495 20.3554 41.4007C24.9936 41.655 28.5415 38.956 31.0211 33.1988V33.1956Z" fill="white"/>
</g>
<defs>
<clipPath id="clip0_19_10">
<rect width="50" height="50" fill="white"/>
</clipPath>
</defs>
</svg>
