<svg width="50" height="50" viewBox="0 0 50 50" fill="none" xmlns="http://www.w3.org/2000/svg">
<path d="M0 25C0 18.3696 2.63392 12.0107 7.32233 7.32233C12.0107 2.63392 18.3696 0 25 0C31.6304 0 37.9893 2.63392 42.6777 7.32233C47.3661 12.0107 50 18.3696 50 25C50 31.6304 47.3661 37.9893 42.6777 42.6777C37.9893 47.3661 31.6304 50 25 50C18.3696 50 12.0107 47.3661 7.32233 42.6777C2.63392 37.9893 0 31.6304 0 25ZM25 4.6875C19.6128 4.6875 14.4462 6.82756 10.6369 10.6369C6.82756 14.4462 4.6875 19.6128 4.6875 25C4.6875 30.3872 6.82756 35.5538 10.6369 39.3631C14.4462 43.1724 19.6128 45.3125 25 45.3125C30.3872 45.3125 35.5538 43.1724 39.3631 39.3631C43.1724 35.5538 45.3125 30.3872 45.3125 25C45.3125 19.6128 43.1724 14.4462 39.3631 10.6369C35.5538 6.82756 30.3872 4.6875 25 4.6875ZM20.3125 24.2188C20.3125 23.5971 20.5594 23.001 20.999 22.5615C21.4385 22.1219 22.0346 21.875 22.6562 21.875H25.7812C26.4029 21.875 26.999 22.1219 27.4385 22.5615C27.8781 23.001 28.125 23.5971 28.125 24.2188V32.8125H28.9062C29.5279 32.8125 30.124 33.0594 30.5635 33.499C31.0031 33.9385 31.25 34.5346 31.25 35.1562C31.25 35.7779 31.0031 36.374 30.5635 36.8135C30.124 37.2531 29.5279 37.5 28.9062 37.5H22.6562C22.0346 37.5 21.4385 37.2531 20.999 36.8135C20.5594 36.374 20.3125 35.7779 20.3125 35.1562C20.3125 34.5346 20.5594 33.9385 20.999 33.499C21.4385 33.0594 22.0346 32.8125 22.6562 32.8125H23.4375V26.5625H22.6562C22.0346 26.5625 21.4385 26.3156 20.999 25.876C20.5594 25.4365 20.3125 24.8404 20.3125 24.2188ZM25 18.75C24.1712 18.75 23.3763 18.4208 22.7903 17.8347C22.2042 17.2487 21.875 16.4538 21.875 15.625C21.875 14.7962 22.2042 14.0013 22.7903 13.4153C23.3763 12.8292 24.1712 12.5 25 12.5C25.8288 12.5 26.6237 12.8292 27.2097 13.4153C27.7958 14.0013 28.125 14.7962 28.125 15.625C28.125 16.4538 27.7958 17.2487 27.2097 17.8347C26.6237 18.4208 25.8288 18.75 25 18.75Z" fill="black"/>
</svg>
