<svg width="26" height="25" viewBox="0 0 26 25" fill="none" xmlns="http://www.w3.org/2000/svg">
<path d="M22.3598 0H2.68318C1.20184 0 0 1.19978 0 2.67857V22.3214C0 23.8002 1.20184 25 2.68318 25H22.3598C23.8412 25 25.043 23.8002 25.043 22.3214V2.67857C25.043 1.19978 23.8412 0 22.3598 0ZM13.4159 16.0714H10.7327V18.75C10.7327 19.2411 10.3303 19.6429 9.83833 19.6429H8.04955C7.55763 19.6429 7.15515 19.2411 7.15515 18.75V6.25C7.15515 5.75893 7.55763 5.35714 8.04955 5.35714H13.4159C16.373 5.35714 18.7823 7.76228 18.7823 10.7143C18.7823 13.6663 16.373 16.0714 13.4159 16.0714ZM13.4159 8.92857H10.7327V12.5H13.4159C14.3997 12.5 15.2047 11.6964 15.2047 10.7143C15.2047 9.73214 14.3997 8.92857 13.4159 8.92857Z" fill="#195ABC"/>
</svg>
