<svg width="21" height="27" viewBox="0 0 21 27" fill="none" xmlns="http://www.w3.org/2000/svg">
<path d="M10.5 0.5C16.023 0.5 20.5 4.977 20.5 10.5C20.5 15.4047 15.7484 21.0815 11.9008 25.0749C11.1344 25.8703 9.86512 25.8694 9.0962 25.0764C4.93346 20.7833 0.5 15.4587 0.5 10.5C0.5 4.977 4.977 0.5 10.5 0.5ZM12 5.5H9.5C8.96957 5.5 8.46086 5.71071 8.08579 6.08579C7.71071 6.46086 7.5 6.96957 7.5 7.5V14.5C7.5 14.7652 7.60536 15.0196 7.79289 15.2071C7.98043 15.3946 8.23478 15.5 8.5 15.5C8.76522 15.5 9.01957 15.3946 9.20711 15.2071C9.39464 15.0196 9.5 14.7652 9.5 14.5V12.5H12C12.9283 12.5 13.8185 12.1313 14.4749 11.4749C15.1313 10.8185 15.5 9.92826 15.5 9C15.5 8.07174 15.1313 7.1815 14.4749 6.52513C13.8185 5.86875 12.9283 5.5 12 5.5ZM12 7.5C12.3978 7.5 12.7794 7.65804 13.0607 7.93934C13.342 8.22064 13.5 8.60218 13.5 9C13.5 9.39782 13.342 9.77936 13.0607 10.0607C12.7794 10.342 12.3978 10.5 12 10.5H9.5V7.5H12Z" fill="#195ABC"/>
</svg>
