<svg width="50" height="50" viewBox="0 0 50 50" fill="none" xmlns="http://www.w3.org/2000/svg">
<g clip-path="url(#clip0_19_2)">
<path d="M48.4105 0H1.58952C0.711653 0 0 0.711653 0 1.58952V48.4105C0 49.2883 0.711653 50 1.58952 50H48.4105C49.2883 50 50 49.2883 50 48.4105V1.58952C50 0.711653 49.2883 0 48.4105 0Z" fill="black"/>
<path d="M19.5034 18.5656H19.3286L14.5219 7.11787C13.867 5.56014 12.341 4.54603 10.653 4.54603H6.07833C6.00522 4.54603 5.94164 4.60961 5.94164 4.68591V7.56294C5.94164 7.63924 6.00522 7.70282 6.07833 7.70282H9.61025C10.653 7.70282 11.5876 8.34181 11.9596 9.31459L15.1227 17.5133H6.07833C6.00522 17.5133 5.94164 17.5738 5.94164 17.65V35.5989C5.94164 35.672 6.00522 35.7356 6.07833 35.7356H12.7416V41.7281C12.7416 42.7232 13.1453 43.626 13.7971 44.2809C14.4519 44.9326 15.3548 45.3363 16.3498 45.3363C18.3431 45.3363 19.958 43.7214 19.958 41.7281V35.6657H20.171C22.142 35.6657 23.7443 34.0634 23.7443 32.0893V22.8033C23.7443 20.4635 21.8464 18.5656 19.5034 18.5656ZM15.8253 29.3585C13.7716 29.3585 12.109 27.6958 12.109 25.6422C12.109 23.5885 13.7716 21.929 15.8253 21.929C17.8789 21.929 19.5384 23.5917 19.5384 25.6422C19.5384 27.6926 17.8758 29.3585 15.8253 29.3585Z" fill="white"/>
<path d="M35.5894 10.9232C37.4083 10.9232 38.8829 9.44865 38.8829 7.6297C38.8829 5.81076 37.4083 4.33621 35.5894 4.33621C33.7704 4.33621 32.2959 5.81076 32.2959 7.6297C32.2959 9.44865 33.7704 10.9232 35.5894 10.9232Z" fill="white"/>
<path d="M31.8572 17.7772C31.7428 17.7772 31.6347 17.7836 31.5234 17.7963L31.5584 17.6278C31.6537 17.6818 31.7555 17.7327 31.8572 17.7772Z" fill="white"/>
<path d="M32.9699 12.3506C32.8332 12.3506 32.6996 12.3569 32.5693 12.3792V12.3506H32.9699Z" fill="white"/>
<path d="M43.998 20.3459C44.1156 19.9898 44.0552 19.5988 43.839 19.2936L38.921 12.4078C38.8956 12.3697 38.8543 12.3506 38.8098 12.3506H32.9699C32.8332 12.3506 32.6996 12.3569 32.5693 12.3792C31.1959 12.5731 30.1405 13.7525 30.1405 15.1767C30.1405 16.2258 30.7096 17.1382 31.5584 17.6278C31.6537 17.6818 31.7555 17.7327 31.8572 17.7772C31.7427 17.7772 31.6347 17.7836 31.5234 17.7963C28.5764 18.0633 26.2684 20.5462 26.2684 23.5631C26.2684 25.7852 27.5178 27.7149 29.3553 28.6845C29.4061 28.7131 29.4348 28.7703 29.4252 28.8276L28.1409 36.5304C28.125 36.6162 28.1886 36.6925 28.2744 36.6925H30.7795C30.8526 36.6925 30.9162 36.7529 30.9162 36.8292V44.0043C30.9162 44.993 31.7809 45.7814 32.795 45.6511C33.6311 45.543 34.2351 44.7895 34.2351 43.9471V36.826C34.2351 36.7497 34.2955 36.6925 34.3718 36.6925H36.0599C36.1362 36.6925 36.1966 36.7529 36.1966 36.8292V43.9376C36.1966 44.8468 36.8992 45.6383 37.8052 45.6638C38.7462 45.6892 39.5123 44.9358 39.5123 44.0043V36.8292C39.5123 36.7529 39.5727 36.6925 39.649 36.6925H42.2463C42.3321 36.6925 42.3957 36.6162 42.383 36.5336L41.175 28.8975C41.1718 28.8784 41.175 28.8562 41.1813 28.8339L43.998 20.3459ZM33.7773 23.6553C33.0239 24.4151 32.2641 25.1685 31.5075 25.9251L31.4789 25.9537L31.4471 25.9219C30.6968 25.1748 29.9466 24.4246 29.1995 23.6743C29.1582 23.633 29.12 23.5917 29.0851 23.5472C28.9198 23.3469 28.818 23.1148 28.7831 22.8541C28.6909 22.1293 29.1518 21.484 29.829 21.3123C29.9657 21.2773 30.1024 21.2646 30.2422 21.2742C30.5983 21.2964 30.9067 21.4299 31.161 21.6843C31.2595 21.7796 31.3549 21.8782 31.4503 21.9735C31.4598 21.9831 31.4693 21.9894 31.4789 21.999C31.4884 21.9894 31.498 21.9831 31.5043 21.9735C31.606 21.8718 31.7078 21.7701 31.8127 21.6684C32.0161 21.4681 32.2609 21.3441 32.5439 21.2932C32.6488 21.2742 32.7537 21.2678 32.8586 21.2742C33.5198 21.3091 34.0317 21.7796 34.1525 22.3741C34.2542 22.8637 34.1302 23.2992 33.7773 23.6553ZM40.7426 20.5048L40.2658 21.5221C40.2085 21.6461 40.0273 21.6207 40.0051 21.4871L39.6586 19.3063C39.6363 19.1633 39.8239 19.087 39.9065 19.2046L40.7299 20.3681C40.7585 20.4095 40.7617 20.4603 40.7426 20.5048Z" fill="white"/>
</g>
<defs>
<clipPath id="clip0_19_2">
<rect width="50" height="50" fill="white"/>
</clipPath>
</defs>
</svg>
