<svg width="53" height="50" viewBox="0 0 53 50" fill="none" xmlns="http://www.w3.org/2000/svg">
<path d="M10.4164 2.779H20.0384C20.5662 2.77916 21.0743 2.97968 21.46 3.34002C21.8457 3.70037 22.0802 4.19368 22.1162 4.72029C22.1521 5.24689 21.9869 5.76751 21.6538 6.17697C21.3207 6.58642 20.8446 6.85417 20.3217 6.92612L20.0384 6.94556H10.4164C8.8332 6.94532 7.30891 7.54593 6.15142 8.62608C4.99393 9.70624 4.28951 11.1854 4.18045 12.7649L4.16656 13.1954V39.5836C4.16707 41.1668 4.76838 42.6907 5.84904 43.8477C6.92971 45.0047 8.40918 45.7084 9.98863 45.8168L10.4164 45.8334H36.8046C38.3887 45.8343 39.9141 45.2337 41.0722 44.1529C42.2304 43.072 42.9349 41.5918 43.0433 40.0114L43.0572 39.5836V38.2003C43.0574 37.6725 43.2579 37.1644 43.6182 36.7787C43.9786 36.393 44.4719 36.1585 44.9985 36.1225C45.5251 36.0865 46.0457 36.2518 46.4552 36.5849C46.8646 36.918 47.1324 37.3941 47.2043 37.917L47.2238 38.2003V39.5836C47.2233 42.2502 46.2001 44.815 44.3651 46.7497C42.5301 48.6845 40.0229 49.8418 37.3601 49.9833L36.8046 50H10.4164C7.74935 50.0002 5.18383 48.9774 3.24848 47.1423C1.31314 45.3072 0.15542 42.7997 0.0138888 40.1364L0 39.5808V13.1926C0.000471277 10.5265 1.02323 7.96207 2.85766 6.02739C4.6921 4.09271 7.19854 2.93508 9.86085 2.79289L10.4164 2.779ZM31.9547 9.84549V2.08458C31.9545 1.70138 32.0599 1.32554 32.2595 0.998404C32.459 0.671266 32.745 0.405505 33.0858 0.230355C33.4266 0.0552044 33.8091 -0.0225485 34.1913 0.00564846C34.5735 0.0338454 34.9404 0.1669 35.2519 0.390176L35.4796 0.579059L52.132 16.5509C52.9097 17.2981 52.9792 18.4953 52.3431 19.323L52.132 19.5591L35.4796 35.5365C35.2032 35.802 34.8588 35.9861 34.4844 36.0685C34.11 36.1509 33.7201 36.1284 33.3577 36.0035C32.9953 35.8786 32.6743 35.6561 32.4302 35.3605C32.1861 35.0649 32.0283 34.7077 31.9742 34.3282L31.9547 34.031V26.2506L31.0659 26.2312C23.6827 26.209 17.3718 29.2422 11.9941 35.4032C10.6192 36.9781 8.0359 35.767 8.36923 33.7004C10.6664 19.423 18.3662 11.3566 31.1186 9.92882L31.9547 9.84549Z" fill="black"/>
</svg>
