<svg width="50" height="50" viewBox="0 0 50 50" fill="none" xmlns="http://www.w3.org/2000/svg">
<path d="M44.845 27.5C44.2885 31.906 42.2822 36.0017 39.1419 39.1419C36.0017 42.2822 31.906 44.2885 27.5 44.845V50H22.5V44.845C18.094 44.2885 13.9983 42.2822 10.8581 39.1419C7.71784 36.0017 5.71146 31.906 5.155 27.5H0V22.5H5.155C5.71146 18.094 7.71784 13.9983 10.8581 10.8581C13.9983 7.71784 18.094 5.71146 22.5 5.155V0H27.5V5.155C31.906 5.71146 36.0017 7.71784 39.1419 10.8581C42.2822 13.9983 44.2885 18.094 44.845 22.5H50V27.5H44.845ZM25 40C28.9782 40 32.7936 38.4196 35.6066 35.6066C38.4196 32.7936 40 28.9782 40 25C40 21.0218 38.4196 17.2064 35.6066 14.3934C32.7936 11.5804 28.9782 10 25 10C21.0218 10 17.2064 11.5804 14.3934 14.3934C11.5804 17.2064 10 21.0218 10 25C10 28.9782 11.5804 32.7936 14.3934 35.6066C17.2064 38.4196 21.0218 40 25 40ZM25 32.5C26.9891 32.5 28.8968 31.7098 30.3033 30.3033C31.7098 28.8968 32.5 26.9891 32.5 25C32.5 23.0109 31.7098 21.1032 30.3033 19.6967C28.8968 18.2902 26.9891 17.5 25 17.5C23.0109 17.5 21.1032 18.2902 19.6967 19.6967C18.2902 21.1032 17.5 23.0109 17.5 25C17.5 26.9891 18.2902 28.8968 19.6967 30.3033C21.1032 31.7098 23.0109 32.5 25 32.5Z" fill="black"/>
</svg>
