<svg width="50" height="35" viewBox="0 0 50 35" fill="none" xmlns="http://www.w3.org/2000/svg">
<path d="M13.3828 5H17.5V12.5H8.69531L11.0703 6.57031C11.4453 5.625 12.3594 5 13.3828 5ZM21.25 12.5V5H27.5938C28.3516 5 29.0703 5.34375 29.5469 5.9375L34.7969 12.5H21.25ZM41.2656 12.5781L33.4531 2.8125C32.0313 1.03125 29.875 0 27.5938 0H13.3828C10.3125 0 7.55469 1.86719 6.42187 4.71094L3.17187 12.8437C1.3125 13.5781 0 15.3828 0 17.5V26.25C0 27.6328 1.11719 28.75 2.5 28.75H5.10156C5.69531 32.2969 8.78125 35 12.5 35C16.2187 35 19.3047 32.2969 19.8984 28.75H30.1016C30.6953 32.2969 33.7813 35 37.5 35C41.2187 35 44.3047 32.2969 44.8984 28.75H47.5C48.8828 28.75 50 27.6328 50 26.25V22.5C50 17.4063 46.1875 13.2031 41.2656 12.5781ZM33.9609 26.25C34.1201 25.7794 34.3712 25.3451 34.6996 24.9723C35.028 24.5995 35.4272 24.2957 35.874 24.0786C36.3209 23.8614 36.8064 23.7352 37.3024 23.7072C37.7984 23.6793 38.2951 23.7502 38.7634 23.9158C39.2318 24.0814 39.6626 24.3384 40.0308 24.672C40.399 25.0055 40.6973 25.4089 40.9083 25.8586C41.1193 26.3084 41.2388 26.7956 41.2599 27.292C41.281 27.7883 41.2033 28.2839 41.0313 28.75C40.8721 29.2206 40.621 29.6549 40.2926 30.0277C39.9642 30.4005 39.565 30.7043 39.1181 30.9214C38.6713 31.1386 38.1858 31.2648 37.6898 31.2928C37.1938 31.3207 36.6971 31.2498 36.2287 31.0842C35.7604 30.9186 35.3296 30.6616 34.9613 30.328C34.5931 29.9945 34.2949 29.5911 34.0839 29.1414C33.8729 28.6916 33.7534 28.2044 33.7323 27.708C33.7111 27.2117 33.7889 26.7161 33.9609 26.25ZM12.5 23.75C13.4946 23.75 14.4484 24.1451 15.1517 24.8483C15.8549 25.5516 16.25 26.5054 16.25 27.5C16.25 28.4946 15.8549 29.4484 15.1517 30.1517C14.4484 30.8549 13.4946 31.25 12.5 31.25C11.5054 31.25 10.5516 30.8549 9.84835 30.1517C9.14509 29.4484 8.75 28.4946 8.75 27.5C8.75 26.5054 9.14509 25.5516 9.84835 24.8483C10.5516 24.1451 11.5054 23.75 12.5 23.75Z" fill="#55185D"/>
</svg>
