<svg width="50" height="50" viewBox="0 0 50 50" fill="none" xmlns="http://www.w3.org/2000/svg">
<path d="M49.2337 44.9812L37.8989 33.6464C40.6278 30.0136 42.101 25.5916 42.096 21.048C42.096 9.44221 32.6538 0 21.048 0C9.44221 0 0 9.44221 0 21.048C0 32.6538 9.44221 42.096 21.048 42.096C25.5916 42.101 30.0136 40.6278 33.6464 37.8989L44.9812 49.2337C45.5549 49.7466 46.3033 50.0204 47.0726 49.9988C47.8419 49.9773 48.5737 49.6621 49.1179 49.1179C49.6621 48.5737 49.9773 47.8419 49.9988 47.0726C50.0204 46.3033 49.7466 45.5549 49.2337 44.9812ZM6.01371 21.048C6.01371 18.0745 6.89546 15.1678 8.54745 12.6954C10.1994 10.223 12.5475 8.29604 15.2946 7.15813C18.0418 6.02022 21.0647 5.72249 23.981 6.30259C26.8974 6.8827 29.5763 8.31457 31.6788 10.4172C33.7814 12.5197 35.2133 15.1986 35.7934 18.115C36.3735 21.0313 36.0758 24.0542 34.9379 26.8014C33.8 29.5485 31.873 31.8966 29.4006 33.5485C26.9282 35.2005 24.0215 36.0823 21.048 36.0823C17.0621 36.0775 13.2409 34.492 10.4224 31.6736C7.604 28.8551 6.0185 25.0339 6.01371 21.048Z" fill="black"/>
</svg>
